<svg width="56" height="50" viewBox="0 0 56 50" fill="none" xmlns="http://www.w3.org/2000/svg">
<rect width="48.6806" height="26.6861" rx="5" transform="matrix(0.92996 0.36766 -0.297977 0.954573 10.229 0)" fill="#D9D9D9"/>
<rect width="48.6806" height="3.9535" transform="matrix(0.92996 0.36766 -0.297977 0.954573 8.56787 5.3212)" fill="white"/>
<rect x="0.5" y="23" width="47.9832" height="27" rx="5" fill="#7BDCB5"/>
<path d="M15.8252 27.7344H17.5039C17.832 27.7344 18.1172 27.7832 18.3594 27.8809C18.6016 27.9785 18.7881 28.123 18.9189 28.3145C19.0518 28.5059 19.1182 28.7422 19.1182 29.0234C19.1182 29.2676 19.0801 29.4717 19.0039 29.6357C18.9277 29.7998 18.8213 29.9355 18.6846 30.043C18.5498 30.1484 18.3926 30.2354 18.2129 30.3037L17.876 30.4941H16.4668L16.4609 29.7002H17.5039C17.6348 29.7002 17.7432 29.6768 17.8291 29.6299C17.915 29.583 17.9795 29.5166 18.0225 29.4307C18.0674 29.3428 18.0898 29.2383 18.0898 29.1172C18.0898 28.9941 18.0674 28.8887 18.0225 28.8008C17.9775 28.7129 17.9111 28.6455 17.8232 28.5986C17.7373 28.5518 17.6309 28.5283 17.5039 28.5283H16.8535V32H15.8252V27.7344ZM18.1602 32L17.2168 30.1133L18.3066 30.1074L19.2617 31.9561V32H18.1602ZM21.5059 27.0635V27.916H21.04V27.0635H21.5059ZM21.4473 31.8477V32.6387H20.9814V31.8477H21.4473ZM21.6436 30.8691C21.6436 30.7617 21.627 30.6729 21.5938 30.6025C21.5605 30.5322 21.5068 30.4707 21.4326 30.418C21.3584 30.3652 21.2598 30.3125 21.1367 30.2598C20.877 30.1543 20.6475 30.0459 20.4482 29.9346C20.251 29.8232 20.0957 29.6846 19.9824 29.5186C19.8711 29.3525 19.8154 29.1367 19.8154 28.8711C19.8154 28.6289 19.875 28.418 19.9941 28.2383C20.1152 28.0586 20.2812 27.9199 20.4922 27.8223C20.7051 27.7227 20.9502 27.6729 21.2275 27.6729C21.4385 27.6729 21.6309 27.7041 21.8047 27.7666C21.9785 27.8291 22.1289 27.9199 22.2559 28.0391C22.3828 28.1562 22.4805 28.3008 22.5488 28.4727C22.6172 28.6426 22.6514 28.8359 22.6514 29.0527H21.6641C21.6641 28.9414 21.6523 28.8457 21.6289 28.7656C21.6074 28.6855 21.5762 28.6201 21.5352 28.5693C21.4941 28.5186 21.4463 28.4814 21.3916 28.458C21.3369 28.4326 21.2773 28.4199 21.2129 28.4199C21.1152 28.4199 21.0361 28.4414 20.9756 28.4844C20.915 28.5254 20.8711 28.5801 20.8438 28.6484C20.8164 28.7168 20.8027 28.793 20.8027 28.877C20.8027 28.9648 20.8174 29.042 20.8467 29.1084C20.8779 29.1729 20.9307 29.2334 21.0049 29.29C21.0791 29.3447 21.1807 29.4014 21.3096 29.46C21.5635 29.5674 21.79 29.6787 21.9893 29.7939C22.1885 29.9092 22.3447 30.0508 22.458 30.2188C22.5732 30.3848 22.6309 30.5996 22.6309 30.8633C22.6309 31.1172 22.5713 31.334 22.4521 31.5137C22.333 31.6914 22.167 31.8271 21.9541 31.9209C21.7412 32.0146 21.4951 32.0615 21.2158 32.0615C21.0283 32.0615 20.8418 32.0371 20.6562 31.9883C20.4727 31.9395 20.3047 31.8604 20.1523 31.751C20.002 31.6396 19.8818 31.4922 19.792 31.3086C19.7021 31.125 19.6572 30.8994 19.6572 30.6318H20.6445C20.6445 30.7627 20.6602 30.8721 20.6914 30.96C20.7227 31.0479 20.7646 31.1182 20.8174 31.1709C20.8721 31.2217 20.9336 31.2588 21.002 31.2822C21.0703 31.3037 21.1416 31.3145 21.2158 31.3145C21.3154 31.3145 21.3965 31.2949 21.459 31.2559C21.5215 31.2148 21.5674 31.1611 21.5967 31.0947C21.6279 31.0264 21.6436 30.9512 21.6436 30.8691ZM27.6289 31.2383V32H24.6523V31.3555L26.0234 29.9141C26.1445 29.7754 26.2422 29.6514 26.3164 29.542C26.3906 29.4307 26.4443 29.3301 26.4775 29.2402C26.5127 29.1504 26.5303 29.0693 26.5303 28.9971C26.5303 28.874 26.5117 28.7715 26.4746 28.6895C26.4395 28.6055 26.3867 28.542 26.3164 28.499C26.248 28.4561 26.1631 28.4346 26.0615 28.4346C25.96 28.4346 25.8711 28.4639 25.7949 28.5225C25.7188 28.5811 25.6592 28.6611 25.6162 28.7627C25.5752 28.8643 25.5547 28.9785 25.5547 29.1055H24.5645C24.5645 28.8438 24.6279 28.6045 24.7549 28.3877C24.8838 28.1709 25.0625 27.998 25.291 27.8691C25.5195 27.7383 25.7842 27.6729 26.085 27.6729C26.3994 27.6729 26.6631 27.7217 26.876 27.8193C27.0889 27.917 27.249 28.0586 27.3564 28.2441C27.4658 28.4277 27.5205 28.6494 27.5205 28.9092C27.5205 29.0576 27.4971 29.2002 27.4502 29.3369C27.4033 29.4736 27.3359 29.6094 27.248 29.7441C27.1602 29.877 27.0527 30.0137 26.9258 30.1543C26.8008 30.2949 26.6582 30.4443 26.498 30.6025L25.9473 31.2383H27.6289ZM31.0947 29.4775V30.2568C31.0947 30.5635 31.0586 30.8301 30.9863 31.0566C30.916 31.2832 30.8145 31.4707 30.6816 31.6191C30.5508 31.7676 30.3945 31.8779 30.2129 31.9502C30.0312 32.0225 29.8311 32.0586 29.6123 32.0586C29.4365 32.0586 29.2725 32.0361 29.1201 31.9912C28.9678 31.9443 28.8301 31.874 28.707 31.7803C28.5859 31.6846 28.4814 31.5654 28.3936 31.4229C28.3057 31.2803 28.2383 31.1123 28.1914 30.9189C28.1445 30.7236 28.1211 30.5029 28.1211 30.2568V29.4775C28.1211 29.1689 28.1562 28.9023 28.2266 28.6777C28.2988 28.4512 28.4014 28.2637 28.5342 28.1152C28.667 27.9668 28.8242 27.8564 29.0059 27.7842C29.1875 27.7119 29.3877 27.6758 29.6064 27.6758C29.7822 27.6758 29.9453 27.6992 30.0957 27.7461C30.248 27.791 30.3857 27.8613 30.5088 27.957C30.6318 28.0508 30.7363 28.1689 30.8223 28.3115C30.9102 28.4541 30.9775 28.623 31.0244 28.8184C31.0713 29.0117 31.0947 29.2314 31.0947 29.4775ZM30.1074 30.377V29.3516C30.1074 29.2148 30.0996 29.0957 30.084 28.9941C30.0703 28.8926 30.0488 28.8066 30.0195 28.7363C29.9922 28.666 29.958 28.6094 29.917 28.5664C29.876 28.5215 29.8291 28.4893 29.7764 28.4697C29.7256 28.4482 29.6689 28.4375 29.6064 28.4375C29.5283 28.4375 29.458 28.4541 29.3955 28.4873C29.335 28.5186 29.2832 28.5693 29.2402 28.6396C29.1973 28.71 29.1641 28.8037 29.1406 28.9209C29.1191 29.0381 29.1084 29.1816 29.1084 29.3516V30.377C29.1084 30.5156 29.1152 30.6367 29.1289 30.7402C29.1445 30.8418 29.166 30.9287 29.1934 31.001C29.2227 31.0713 29.2578 31.1289 29.2988 31.1738C29.3398 31.2168 29.3867 31.248 29.4395 31.2676C29.4922 31.2871 29.5498 31.2969 29.6123 31.2969C29.6885 31.2969 29.7568 31.2812 29.8174 31.25C29.8779 31.2188 29.9297 31.168 29.9727 31.0977C30.0176 31.0254 30.0508 30.9307 30.0723 30.8135C30.0957 30.6943 30.1074 30.5488 30.1074 30.377ZM34.5752 29.4775V30.2568C34.5752 30.5635 34.5391 30.8301 34.4668 31.0566C34.3965 31.2832 34.2949 31.4707 34.1621 31.6191C34.0312 31.7676 33.875 31.8779 33.6934 31.9502C33.5117 32.0225 33.3115 32.0586 33.0928 32.0586C32.917 32.0586 32.7529 32.0361 32.6006 31.9912C32.4482 31.9443 32.3105 31.874 32.1875 31.7803C32.0664 31.6846 31.9619 31.5654 31.874 31.4229C31.7861 31.2803 31.7188 31.1123 31.6719 30.9189C31.625 30.7236 31.6016 30.5029 31.6016 30.2568V29.4775C31.6016 29.1689 31.6367 28.9023 31.707 28.6777C31.7793 28.4512 31.8818 28.2637 32.0146 28.1152C32.1475 27.9668 32.3047 27.8564 32.4863 27.7842C32.668 27.7119 32.8682 27.6758 33.0869 27.6758C33.2627 27.6758 33.4258 27.6992 33.5762 27.7461C33.7285 27.791 33.8662 27.8613 33.9893 27.957C34.1123 28.0508 34.2168 28.1689 34.3027 28.3115C34.3906 28.4541 34.458 28.623 34.5049 28.8184C34.5518 29.0117 34.5752 29.2314 34.5752 29.4775ZM33.5879 30.377V29.3516C33.5879 29.2148 33.5801 29.0957 33.5645 28.9941C33.5508 28.8926 33.5293 28.8066 33.5 28.7363C33.4727 28.666 33.4385 28.6094 33.3975 28.5664C33.3564 28.5215 33.3096 28.4893 33.2568 28.4697C33.2061 28.4482 33.1494 28.4375 33.0869 28.4375C33.0088 28.4375 32.9385 28.4541 32.876 28.4873C32.8154 28.5186 32.7637 28.5693 32.7207 28.6396C32.6777 28.71 32.6445 28.8037 32.6211 28.9209C32.5996 29.0381 32.5889 29.1816 32.5889 29.3516V30.377C32.5889 30.5156 32.5957 30.6367 32.6094 30.7402C32.625 30.8418 32.6465 30.9287 32.6738 31.001C32.7031 31.0713 32.7383 31.1289 32.7793 31.1738C32.8203 31.2168 32.8672 31.248 32.9199 31.2676C32.9727 31.2871 33.0303 31.2969 33.0928 31.2969C33.1689 31.2969 33.2373 31.2812 33.2979 31.25C33.3584 31.2188 33.4102 31.168 33.4531 31.0977C33.498 31.0254 33.5312 30.9307 33.5527 30.8135C33.5762 30.6943 33.5879 30.5488 33.5879 30.377Z" fill="white"/>
<path d="M7.16431 38.5001C7.16431 37.6716 7.83588 37.0001 8.66431 37.0001H41.2074C42.0359 37.0001 42.7074 37.6716 42.7074 38.5001C42.7074 39.3285 42.0359 40.0001 41.2074 40.0001H8.66431C7.83588 40.0001 7.16431 39.3285 7.16431 38.5001Z" fill="white"/>
<rect x="6.72009" y="44" width="35.5431" height="3" rx="1.5" fill="white"/>
</svg>
