<svg width="50" height="45" viewBox="0 0 50 45" fill="none" xmlns="http://www.w3.org/2000/svg">
<rect x="6.5" y="20.5" width="37" height="23" fill="#6866B1" stroke="#7BDCB5" stroke-width="3"/>
<rect x="1" y="11" width="48" height="8" fill="#6866B1" stroke="#7BDCB5" stroke-width="2"/>
<rect x="22" y="9.97906" width="6" height="34" fill="#7BDCB5"/>
<path d="M36.6044 3.34055C36.9135 3.94072 36.7568 4.86025 35.9557 5.95536C35.1744 7.02348 33.8637 8.12647 32.1992 8.98366C30.5348 9.84085 28.8757 10.2673 27.5524 10.2831C26.1956 10.2993 25.3561 9.89276 25.047 9.29259C24.7379 8.69242 24.8945 7.77289 25.6956 6.67778C26.477 5.60966 27.7877 4.50667 29.4521 3.64948C31.1166 2.79229 32.7757 2.36584 34.099 2.35006C35.4557 2.33387 36.2953 2.74038 36.6044 3.34055Z" fill="white" stroke="#7BDCB5"/>
<path d="M24.6043 9.29286C24.2951 9.89302 23.4556 10.2995 22.0988 10.2833C20.7755 10.2675 19.1164 9.84096 17.452 8.98373C15.7876 8.1265 14.4769 7.02347 13.6956 5.95533C12.8945 4.8602 12.7379 3.94066 13.047 3.3405C13.3561 2.74034 14.1957 2.33386 15.5524 2.35008C16.8757 2.3659 18.5348 2.79239 20.1993 3.64963C21.8637 4.50686 23.1743 5.60989 23.9557 6.67803C24.7567 7.77316 24.9134 8.6927 24.6043 9.29286Z" fill="white" stroke="#7BDCB5"/>
<ellipse cx="24.5" cy="10" rx="0.5" ry="1" fill="#7BDCB5"/>
</svg>
