<svg width="58" height="29" viewBox="0 0 58 29" fill="none" xmlns="http://www.w3.org/2000/svg">
<rect x="2.07898" y="2.54269" width="53.842" height="24.4197" fill="white" stroke="#7BDCB5" stroke-width="4"/>
<ellipse cx="28.7104" cy="15.0238" rx="8.6842" ry="8.13991" fill="#D9D9D9"/>
<ellipse cx="53.6052" cy="4.7133" rx="2.89473" ry="2.7133" fill="#7BDCB5"/>
<ellipse cx="4.39473" cy="4.7133" rx="2.89473" ry="2.7133" fill="#7BDCB5"/>
<ellipse cx="53.6053" cy="24.7917" rx="2.89473" ry="2.7133" fill="#7BDCB5"/>
<ellipse cx="4.39473" cy="24.7917" rx="2.89473" ry="2.7133" fill="#7BDCB5"/>
<path d="M30.0322 8.54218V10.3893H29.0229V8.54218H30.0322ZM29.9053 18.9079V20.6218H28.896V18.9079H29.9053ZM30.3306 16.7878C30.3306 16.555 30.2946 16.3625 30.2227 16.2101C30.1507 16.0578 30.0343 15.9245 29.8735 15.8102C29.7127 15.696 29.499 15.5817 29.2324 15.4675C28.6696 15.239 28.1724 15.0041 27.7407 14.7629C27.3133 14.5217 26.9769 14.2212 26.7314 13.8615C26.4902 13.5018 26.3696 13.0342 26.3696 12.4587C26.3696 11.9339 26.4987 11.4769 26.7568 11.0876C27.0192 10.6983 27.3789 10.3978 27.8359 10.1862C28.2972 9.9704 28.8283 9.86249 29.4292 9.86249C29.8862 9.86249 30.3031 9.9302 30.6797 10.0656C31.0563 10.201 31.3822 10.3978 31.6572 10.6559C31.9323 10.9099 32.1439 11.223 32.292 11.5954C32.4401 11.9636 32.5142 12.3825 32.5142 12.8522H30.375C30.375 12.611 30.3496 12.4037 30.2988 12.2302C30.2523 12.0567 30.1846 11.9149 30.0957 11.8049C30.0068 11.6948 29.9032 11.6144 29.7847 11.5637C29.6662 11.5086 29.5371 11.4811 29.3975 11.4811C29.1859 11.4811 29.0145 11.5277 28.8833 11.6208C28.7521 11.7097 28.6569 11.8281 28.5977 11.9763C28.5384 12.1244 28.5088 12.2894 28.5088 12.4714C28.5088 12.6618 28.5405 12.829 28.604 12.9728C28.6717 13.1125 28.786 13.2437 28.9468 13.3664C29.1076 13.4849 29.3276 13.6076 29.6069 13.7346C30.1571 13.9673 30.6479 14.2085 31.0796 14.4582C31.5112 14.7079 31.8498 15.0147 32.0952 15.3786C32.3449 15.7383 32.4697 16.2038 32.4697 16.7751C32.4697 17.3252 32.3407 17.7949 32.0825 18.1843C31.8244 18.5694 31.4647 18.8635 31.0034 19.0666C30.5422 19.2697 30.009 19.3713 29.4038 19.3713C28.9976 19.3713 28.5934 19.3184 28.1914 19.2126C27.7936 19.1068 27.4297 18.9354 27.0996 18.6984C26.7738 18.4572 26.5135 18.1377 26.3188 17.7399C26.1242 17.3421 26.0269 16.8534 26.0269 16.2736H28.166C28.166 16.5571 28.1999 16.7941 28.2676 16.9846C28.3353 17.175 28.4263 17.3273 28.5405 17.4416C28.659 17.5516 28.7923 17.632 28.9404 17.6828C29.0885 17.7293 29.243 17.7526 29.4038 17.7526C29.6196 17.7526 29.7952 17.7103 29.9307 17.6257C30.0661 17.5368 30.1655 17.4204 30.229 17.2766C30.2967 17.1284 30.3306 16.9655 30.3306 16.7878Z" fill="#7BDCB5"/>
</svg>
