<svg width="64" height="50" viewBox="0 0 64 50" fill="none" xmlns="http://www.w3.org/2000/svg">
<path d="M39.282 9.98834C39.282 13.8832 36.145 17.0353 32.282 17.0353C28.4189 17.0353 25.282 13.8832 25.282 9.98834C25.282 6.09344 28.4189 2.94135 32.282 2.94135C36.145 2.94135 39.282 6.09344 39.282 9.98834Z" fill="#EDE51E" stroke="#000944"/>
<path d="M32.571 5.87811V7.01483H31.95V5.87811H32.571ZM32.4929 12.257V13.3117H31.8718V12.257H32.4929ZM32.7546 10.9523C32.7546 10.8091 32.7325 10.6906 32.6882 10.5969C32.644 10.5031 32.5723 10.4211 32.4734 10.3508C32.3744 10.2805 32.2429 10.2101 32.0789 10.1398C31.7325 9.99921 31.4265 9.85468 31.1609 9.70624C30.8979 9.5578 30.6908 9.3729 30.5398 9.15155C30.3914 8.9302 30.3171 8.64244 30.3171 8.28827C30.3171 7.96535 30.3966 7.6841 30.5554 7.44452C30.7169 7.20494 30.9382 7.02004 31.2195 6.88983C31.5033 6.75702 31.8302 6.69061 32.2 6.69061C32.4812 6.69061 32.7377 6.73228 32.9695 6.81561C33.2013 6.89895 33.4018 7.02004 33.571 7.17889C33.7403 7.33514 33.8705 7.52785 33.9617 7.75702C34.0528 7.98358 34.0984 8.24139 34.0984 8.53046H32.782C32.782 8.38202 32.7664 8.25441 32.7351 8.14764C32.7065 8.04087 32.6648 7.95363 32.6101 7.88593C32.5554 7.81822 32.4916 7.76874 32.4187 7.73749C32.3458 7.70363 32.2664 7.68671 32.1804 7.68671C32.0502 7.68671 31.9447 7.71535 31.864 7.77264C31.7833 7.82733 31.7247 7.90025 31.6882 7.99139C31.6518 8.08254 31.6335 8.1841 31.6335 8.29608C31.6335 8.41327 31.6531 8.51613 31.6921 8.60468C31.7338 8.69061 31.8041 8.77134 31.9031 8.84686C32.002 8.91978 32.1375 8.9953 32.3093 9.07343C32.6479 9.21665 32.95 9.36509 33.2156 9.51874C33.4812 9.67238 33.6895 9.86119 33.8406 10.0851C33.9942 10.3065 34.071 10.593 34.071 10.9445C34.071 11.2831 33.9916 11.5721 33.8328 11.8117C33.6739 12.0487 33.4526 12.2297 33.1687 12.3547C32.8848 12.4797 32.5567 12.5422 32.1843 12.5422C31.9343 12.5422 31.6856 12.5096 31.4382 12.4445C31.1934 12.3794 30.9695 12.2739 30.7664 12.1281C30.5658 11.9797 30.4057 11.7831 30.2859 11.5383C30.1661 11.2935 30.1062 10.9927 30.1062 10.6359H31.4226C31.4226 10.8104 31.4434 10.9562 31.4851 11.0734C31.5268 11.1906 31.5828 11.2844 31.6531 11.3547C31.726 11.4224 31.808 11.4719 31.8992 11.5031C31.9903 11.5318 32.0854 11.5461 32.1843 11.5461C32.3171 11.5461 32.4252 11.52 32.5085 11.468C32.5919 11.4133 32.6531 11.3417 32.6921 11.2531C32.7338 11.162 32.7546 11.0617 32.7546 10.9523Z" fill="white"/>
<ellipse cx="30.4552" cy="28.6041" rx="25.1773" ry="16.1003" fill="#7BDCB5"/>
<rect x="0.781982" y="24.579" width="8.99188" height="9.0564" fill="#7BDCB5"/>
<path d="M15.1802 38.6669L20.1782 40.9404L18.1523 46.5182C17.7752 47.5564 16.6544 48.0272 15.649 47.5699L14.292 46.9526C13.2865 46.4953 12.7772 45.2829 13.1542 44.2447L15.1802 38.6669Z" fill="#7BDCB5"/>
<path d="M36.7495 41.7231L42.0634 40.6795L42.997 46.6326C43.1681 47.7238 42.4282 48.781 41.3444 48.9939L39.9555 49.2667C38.8716 49.4795 37.8542 48.7675 37.6831 47.6762L36.7495 41.7231Z" fill="#7BDCB5"/>
<path fill-rule="evenodd" clip-rule="evenodd" d="M41.8272 30.6715C41.1173 31.4015 43.4212 31.1544 44.1389 31.4638C46.4472 32.4588 51.3694 32.3387 50.8005 34.5396C50.4071 36.0616 45.2187 35.8257 42.6812 37.1035C40.3758 38.2644 39.8094 40.4069 37.3471 41.3145C34.9863 42.1848 33.1161 41.4781 31.1467 41.3552C29.4477 41.2493 27.6879 41.1776 26.5205 40.6392C25.4146 40.1292 24.4119 39.4225 24.6346 38.3519C24.8622 37.2574 26.1679 35.9304 27.7286 34.83C29.1258 33.8449 32.0793 33.6415 32.8182 32.5821C33.626 31.4239 30.9514 31.3099 30.8735 30.3207C30.7246 28.4296 28.5449 24.8209 32.1611 24.2378C36.7138 23.5038 35.873 27.5429 37.7942 29.2049C38.177 29.5361 38.0948 30.5443 38.997 30.1517C43.907 28.0151 58.0273 26.8334 60.7002 23.4844C64.1164 30.4365 44.5758 27.8453 41.8272 30.6715Z" fill="#7BDCB5"/>
<path fill-rule="evenodd" clip-rule="evenodd" d="M28.2161 25.6741C27.9609 26.7931 30.0342 26.6566 30.9067 27.2504C33.7132 29.1602 38.382 29.5402 39.1258 33.0985C39.6402 35.5592 34.506 34.5615 32.8127 36.3683C31.2742 38.0099 31.986 41.4722 30.1479 42.6781C28.3854 43.8343 26.17 42.4508 24.2017 42.0173C22.5037 41.6433 20.7671 41.3186 19.3272 40.2949C17.9632 39.325 16.583 38.0434 16.1691 36.3061C15.746 34.5302 16.2245 32.4977 17.0815 30.8685C17.8487 29.41 20.5732 29.4216 20.6629 27.7635C20.761 25.9506 18.1189 25.4489 17.4635 23.8105C16.2104 20.6783 8.87464 7.47274 13.3707 9.98837C17.4635 7.97584 20.6472 19.8221 23.4723 22.7852C24.0352 23.3755 24.5477 25.0265 25.186 24.4858C28.6598 21.5429 29.9325 12.3343 33.9491 13.9096C37.7099 15.3846 29.2041 21.3418 28.2161 25.6741Z" fill="#7BDCB5"/>
</svg>
