<svg width="56" height="41" viewBox="0 0 56 41" fill="none" xmlns="http://www.w3.org/2000/svg">
<rect x="0.5" y="3.67761" width="55" height="36.073" rx="4.5" fill="white" stroke="#7BDCB5"/>
<path d="M1 8.17761C1 5.41619 3.23858 3.17761 6 3.17761H50C52.7614 3.17761 55 5.41619 55 8.17761V13.7699H1V8.17761Z" fill="#7BDCB5"/>
<rect x="4" width="2" height="7.41459" fill="#D9D9D9"/>
<rect x="14" width="2" height="7.41459" fill="#D9D9D9"/>
<rect x="49" width="2" height="7.41459" fill="#D9D9D9"/>
<rect x="39" width="2" height="7.41459" fill="#D9D9D9"/>
<rect x="4" y="32.836" width="8" height="4.23691" fill="#D9D9D9"/>
<rect x="24" y="32.836" width="8" height="4.23691" fill="#D9D9D9"/>
<rect x="34" y="32.836" width="8" height="4.23691" fill="#D9D9D9"/>
<rect x="44" y="32.836" width="8" height="4.23691" fill="#D9D9D9"/>
<ellipse cx="18" cy="34.4249" rx="4" ry="3.7073" fill="#6866B1"/>
<rect x="4" y="24.3622" width="8" height="4.23691" fill="#D9D9D9"/>
<rect x="14" y="24.3622" width="8" height="4.23691" fill="#D9D9D9"/>
<rect x="24" y="24.3622" width="8" height="4.23691" fill="#D9D9D9"/>
<rect x="34" y="24.3622" width="8" height="4.23691" fill="#D9D9D9"/>
<rect x="44" y="24.3622" width="8" height="4.23691" fill="#D9D9D9"/>
<rect x="4" y="15.8883" width="8" height="4.23691" fill="#D9D9D9"/>
<rect x="14" y="15.8883" width="8" height="4.23691" fill="#D9D9D9"/>
<rect x="24" y="15.8883" width="8" height="4.23691" fill="#D9D9D9"/>
<rect x="44" y="15.8883" width="8" height="4.23691" fill="#D9D9D9"/>
<ellipse cx="38" cy="18.5364" rx="4" ry="3.7073" fill="#6866B1"/>
</svg>
