<svg width="54" height="54" viewBox="0 0 54 54" fill="none" xmlns="http://www.w3.org/2000/svg">
<path d="M49.8391 26.163C49.8391 39.5103 39.0881 50.3197 25.8391 50.3197C12.5902 50.3197 1.83914 39.5103 1.83914 26.163C1.83914 12.8158 12.5902 2.00635 25.8391 2.00635C39.0881 2.00635 49.8391 12.8158 49.8391 26.163Z" fill="#6866B1" stroke="#7BDCB5" stroke-width="2"/>
<path fill-rule="evenodd" clip-rule="evenodd" d="M11.5081 5.42625C14.0461 3.75314 17.1418 2.30787 19.9303 2.60281C22.9873 2.92614 26.0488 4.45015 26.1445 6.97433C26.2361 9.39279 21.7912 10.9926 20.3401 13.4156C18.8441 15.9136 20.7837 19.3097 17.8323 20.854C14.9537 22.3601 12.4568 19.8389 9.90862 18.8737C7.86476 18.0996 5.11532 17.7378 4.69446 15.8777C4.28936 14.0872 6.79342 12.3234 8.00584 10.4637C9.15567 8.69996 9.54552 6.72003 11.5081 5.42625Z" fill="#7BDCB5"/>
<path fill-rule="evenodd" clip-rule="evenodd" d="M11.1158 45.2081C8.59354 43.0151 5.90984 40.3119 4.5457 37.8012C3.0502 35.0488 2.3441 32.2353 3.95554 32.0298C5.49949 31.8329 9.03931 35.7368 11.4486 36.921C13.9325 38.1418 15.0882 36.2439 17.7566 38.8132C20.359 41.319 20.0918 43.6744 20.8795 46.0017C21.5114 47.8685 22.8096 50.3474 21.818 50.8125C20.8634 51.2602 18.3004 49.102 16.396 48.1047C14.59 47.1589 13.0662 46.9039 11.1158 45.2081Z" fill="#7BDCB5"/>
<path fill-rule="evenodd" clip-rule="evenodd" d="M32.7092 40.5143C30.0828 39.5928 27.2475 38.2142 25.6814 36.2895C23.9644 34.1795 22.9873 31.5531 24.4887 30.4119C25.9272 29.3184 29.7041 31.5012 32.1128 31.4009C34.5961 31.2975 35.4804 28.5941 38.2865 29.8373C41.0232 31.0498 41.0294 33.7385 42.0303 35.7949C42.833 37.4443 44.3334 39.3723 43.4467 40.4393C42.5932 41.4663 39.932 40.6056 38.0213 40.6189C36.2093 40.6316 34.7402 41.2269 32.7092 40.5143Z" fill="#7BDCB5"/>
<path fill-rule="evenodd" clip-rule="evenodd" d="M46.3988 12.4645C48.2619 14.9369 50.0446 17.9583 50.337 20.6949C50.6576 23.695 49.9915 26.7109 47.9337 26.8285C45.962 26.9412 43.7934 22.5986 41.522 21.1988C39.1804 19.7558 36.7593 21.6895 34.9228 18.8105C33.1317 16.0027 34.7263 13.5309 35.0313 11.0235C35.2759 9.01243 35.0459 6.31348 36.4952 5.88329C37.8901 5.4692 39.8213 7.90748 41.5835 9.07855C43.2548 10.1892 44.9581 10.5526 46.3988 12.4645Z" fill="#7BDCB5"/>
<path d="M22.1584 24.7132C22.5873 24.4563 23.1413 24.5968 23.3958 25.0271C23.6503 25.4574 23.509 26.0144 23.0801 26.2713L13.6741 31.9053L12.7524 30.3472L22.1584 24.7132Z" fill="#000944"/>
<path d="M14.9236 29.7431L12.1429 29.4765L13.2073 30.9422L14.9236 29.7431Z" fill="#000944" stroke="#000944"/>
<path d="M15.3084 30.3938L14.2157 32.9805L13.4427 31.3403L15.3084 30.3938Z" fill="#000944" stroke="#000944"/>
<path d="M19.94 26.0418L16.2997 24.0019L18.1431 27.1181L19.94 26.0418Z" fill="#000944" stroke="#000944"/>
<path d="M20.9082 31.7925L19.0648 28.6762L20.8617 27.5999L20.9082 31.7925Z" fill="#000944" stroke="#000944"/>
</svg>
