<svg width="167" height="45" viewBox="0 0 167 45" fill="none" xmlns="http://www.w3.org/2000/svg">
<path d="M8.75781 33.0334L12.3086 19.9904H16.9141L11.1602 37.0529H8.18359L8.75781 33.0334ZM5.53516 19.9904L9.08594 33.0334L9.68359 37.0529H6.67188L0.953125 19.9904H5.53516ZM24.5078 23.5764L20.3477 37.0529H15.9297L22.1992 19.9904H25L24.5078 23.5764ZM27.9531 37.0529L23.7812 23.5764L23.2422 19.9904H26.0781L32.3828 37.0529H27.9531ZM27.7891 30.6897V33.8654H19.0352V30.6897H27.7891ZM44.9102 33.8889V37.0529H36.2852V33.8889H44.9102ZM37.75 19.9904V37.0529H33.6367V19.9904H37.75ZM58.3867 33.8889V37.0529H49.293V33.8889H58.3867ZM50.7578 19.9904V37.0529H46.6445V19.9904H50.7578ZM57.2148 26.7639V29.8225H49.293V26.7639H57.2148ZM58.4219 19.9904V23.1662H49.293V19.9904H58.4219ZM67.5977 28.1701V31.2287H60.5547V28.1701H67.5977ZM77.3359 33.0334L80.8867 19.9904H85.4922L79.7383 37.0529H76.7617L77.3359 33.0334ZM74.1133 19.9904L77.6641 33.0334L78.2617 37.0529H75.25L69.5312 19.9904H74.1133ZM91.1172 19.9904V37.0529H87.0156V19.9904H91.1172ZM101.453 23.5764L97.293 37.0529H92.875L99.1445 19.9904H101.945L101.453 23.5764ZM104.898 37.0529L100.727 23.5764L100.188 19.9904H103.023L109.328 37.0529H104.898ZM104.734 30.6897V33.8654H95.9805V30.6897H104.734ZM124.281 27.9358V34.9436C123.992 35.2639 123.547 35.6076 122.945 35.9748C122.352 36.3342 121.602 36.6428 120.695 36.9006C119.789 37.1584 118.723 37.2873 117.496 37.2873C116.363 37.2873 115.336 37.1076 114.414 36.7483C113.492 36.3811 112.699 35.8459 112.035 35.1428C111.379 34.4319 110.871 33.5647 110.512 32.5412C110.16 31.51 109.984 30.3303 109.984 29.0022V28.0529C109.984 26.7248 110.164 25.5451 110.523 24.5139C110.883 23.4826 111.387 22.6154 112.035 21.9123C112.691 21.2014 113.461 20.6623 114.344 20.2951C115.234 19.9279 116.211 19.7444 117.273 19.7444C118.844 19.7444 120.121 19.9944 121.105 20.4944C122.09 20.9865 122.836 21.6701 123.344 22.5451C123.852 23.4123 124.16 24.4162 124.27 25.5569H120.32C120.242 24.9944 120.094 24.5178 119.875 24.1272C119.664 23.7287 119.359 23.4279 118.961 23.2248C118.562 23.0139 118.047 22.9084 117.414 22.9084C116.922 22.9084 116.473 23.0139 116.066 23.2248C115.668 23.4358 115.328 23.7561 115.047 24.1858C114.766 24.6076 114.547 25.1389 114.391 25.7795C114.242 26.4201 114.168 27.1701 114.168 28.0295V29.0022C114.168 29.8537 114.238 30.5998 114.379 31.2404C114.527 31.8811 114.746 32.4162 115.035 32.8459C115.332 33.2678 115.707 33.5881 116.16 33.8069C116.621 34.0178 117.164 34.1233 117.789 34.1233C118.227 34.1233 118.602 34.0881 118.914 34.0178C119.227 33.9397 119.484 33.8459 119.688 33.7365C119.898 33.6194 120.059 33.51 120.168 33.4084V30.76H117.309V27.9358H124.281ZM138.426 33.8889V37.0529H129.332V33.8889H138.426ZM130.797 19.9904V37.0529H126.684V19.9904H130.797ZM137.254 26.7639V29.8225H129.332V26.7639H137.254ZM138.461 19.9904V23.1662H129.332V19.9904H138.461ZM142.152 19.9904H145.504L149.312 31.8615L153.121 19.9904H156.473L150.672 37.0529H147.953L142.152 19.9904ZM140.113 19.9904H143.582L144.227 33.0686V37.0529H140.113V19.9904ZM155.043 19.9904H158.523V37.0529H154.398V33.0686L155.043 19.9904Z" fill="white"/>
<mask id="path-2-outside-1_5_305" maskUnits="userSpaceOnUse" x="-1" y="3.43658" width="161" height="21" fill="black">
<rect fill="white" x="-1" y="3.43658" width="161" height="21"/>
<path d="M8.75781 18.4171L12.3086 5.37408H16.9141L11.1602 22.4366H8.18359L8.75781 18.4171ZM5.53516 5.37408L9.08594 18.4171L9.68359 22.4366H6.67188L0.953125 5.37408H5.53516ZM24.5078 8.96002L20.3477 22.4366H15.9297L22.1992 5.37408H25L24.5078 8.96002ZM27.9531 22.4366L23.7812 8.96002L23.2422 5.37408H26.0781L32.3828 22.4366H27.9531ZM27.7891 16.0733V19.2491H19.0352V16.0733H27.7891ZM44.9102 19.2725V22.4366H36.2852V19.2725H44.9102ZM37.75 5.37408V22.4366H33.6367V5.37408H37.75ZM58.3867 19.2725V22.4366H49.293V19.2725H58.3867ZM50.7578 5.37408V22.4366H46.6445V5.37408H50.7578ZM57.2148 12.1475V15.2061H49.293V12.1475H57.2148ZM58.4219 5.37408V8.54987H49.293V5.37408H58.4219ZM67.5977 13.5538V16.6124H60.5547V13.5538H67.5977ZM77.3359 18.4171L80.8867 5.37408H85.4922L79.7383 22.4366H76.7617L77.3359 18.4171ZM74.1133 5.37408L77.6641 18.4171L78.2617 22.4366H75.25L69.5312 5.37408H74.1133ZM91.1172 5.37408V22.4366H87.0156V5.37408H91.1172ZM101.453 8.96002L97.293 22.4366H92.875L99.1445 5.37408H101.945L101.453 8.96002ZM104.898 22.4366L100.727 8.96002L100.188 5.37408H103.023L109.328 22.4366H104.898ZM104.734 16.0733V19.2491H95.9805V16.0733H104.734ZM124.281 13.3194V20.3272C123.992 20.6475 123.547 20.9913 122.945 21.3585C122.352 21.7178 121.602 22.0264 120.695 22.2842C119.789 22.5421 118.723 22.671 117.496 22.671C116.363 22.671 115.336 22.4913 114.414 22.1319C113.492 21.7647 112.699 21.2296 112.035 20.5264C111.379 19.8155 110.871 18.9483 110.512 17.9249C110.16 16.8936 109.984 15.7139 109.984 14.3858V13.4366C109.984 12.1085 110.164 10.9288 110.523 9.89752C110.883 8.86627 111.387 7.99908 112.035 7.29596C112.691 6.58502 113.461 6.04596 114.344 5.67877C115.234 5.31158 116.211 5.12799 117.273 5.12799C118.844 5.12799 120.121 5.37799 121.105 5.87799C122.09 6.37018 122.836 7.05377 123.344 7.92877C123.852 8.79596 124.16 9.79987 124.27 10.9405H120.32C120.242 10.378 120.094 9.90143 119.875 9.5108C119.664 9.11237 119.359 8.81158 118.961 8.60846C118.562 8.39752 118.047 8.29205 117.414 8.29205C116.922 8.29205 116.473 8.39752 116.066 8.60846C115.668 8.8194 115.328 9.13971 115.047 9.5694C114.766 9.99127 114.547 10.5225 114.391 11.1631C114.242 11.8038 114.168 12.5538 114.168 13.4131V14.3858C114.168 15.2374 114.238 15.9835 114.379 16.6241C114.527 17.2647 114.746 17.7999 115.035 18.2296C115.332 18.6514 115.707 18.9717 116.16 19.1905C116.621 19.4014 117.164 19.5069 117.789 19.5069C118.227 19.5069 118.602 19.4717 118.914 19.4014C119.227 19.3233 119.484 19.2296 119.688 19.1202C119.898 19.003 120.059 18.8936 120.168 18.7921V16.1436H117.309V13.3194H124.281ZM138.426 19.2725V22.4366H129.332V19.2725H138.426ZM130.797 5.37408V22.4366H126.684V5.37408H130.797ZM137.254 12.1475V15.2061H129.332V12.1475H137.254ZM138.461 5.37408V8.54987H129.332V5.37408H138.461ZM142.152 5.37408H145.504L149.312 17.2452L153.121 5.37408H156.473L150.672 22.4366H147.953L142.152 5.37408ZM140.113 5.37408H143.582L144.227 18.4522V22.4366H140.113V5.37408ZM155.043 5.37408H158.523V22.4366H154.398V18.4522L155.043 5.37408Z"/>
</mask>
<path d="M8.75781 18.4171L7.79293 18.1544L7.77664 18.2142L7.76786 18.2756L8.75781 18.4171ZM12.3086 5.37408V4.37408H11.5444L11.3437 5.11141L12.3086 5.37408ZM16.9141 5.37408L17.8616 5.69363L18.3066 4.37408H16.9141V5.37408ZM11.1602 22.4366V23.4366H11.8783L12.1077 22.7561L11.1602 22.4366ZM8.18359 22.4366L7.19364 22.2952L7.03058 23.4366H8.18359V22.4366ZM5.53516 5.37408L6.50004 5.11141L6.29931 4.37408H5.53516V5.37408ZM9.08594 18.4171L10.0751 18.27L10.0664 18.2115L10.0508 18.1544L9.08594 18.4171ZM9.68359 22.4366V23.4366H10.8433L10.6727 22.2895L9.68359 22.4366ZM6.67188 22.4366L5.72371 22.7544L5.95237 23.4366H6.67188V22.4366ZM0.953125 5.37408V4.37408H-0.436713L0.00496393 5.69187L0.953125 5.37408ZM9.7227 18.6797L13.2735 5.63676L11.3437 5.11141L7.79293 18.1544L9.7227 18.6797ZM12.3086 6.37408H16.9141V4.37408H12.3086V6.37408ZM15.9665 5.05454L10.2126 22.117L12.1077 22.7561L17.8616 5.69363L15.9665 5.05454ZM11.1602 21.4366H8.18359V23.4366H11.1602V21.4366ZM9.17354 22.578L9.74776 18.5585L7.76786 18.2756L7.19364 22.2952L9.17354 22.578ZM4.57027 5.63676L8.12105 18.6797L10.0508 18.1544L6.50004 5.11141L4.57027 5.63676ZM8.09681 18.5641L8.69447 22.5837L10.6727 22.2895L10.0751 18.27L8.09681 18.5641ZM9.68359 21.4366H6.67188V23.4366H9.68359V21.4366ZM7.62004 22.1188L1.90129 5.05629L0.00496393 5.69187L5.72371 22.7544L7.62004 22.1188ZM0.953125 6.37408H5.53516V4.37408H0.953125V6.37408ZM24.5078 8.96002L25.4633 9.25498L25.4874 9.17693L25.4985 9.096L24.5078 8.96002ZM20.3477 22.4366V23.4366H21.0855L21.3032 22.7315L20.3477 22.4366ZM15.9297 22.4366L14.991 22.0917L14.4969 23.4366H15.9297V22.4366ZM22.1992 5.37408V4.37408H21.5013L21.2606 5.02919L22.1992 5.37408ZM25 5.37408L25.9907 5.51006L26.1466 4.37408H25V5.37408ZM27.9531 22.4366L26.9979 22.7323L27.2159 23.4366H27.9531V22.4366ZM23.7812 8.96002L22.7924 9.10868L22.8036 9.18348L22.826 9.25574L23.7812 8.96002ZM23.2422 5.37408V4.37408H22.0806L22.2533 5.52274L23.2422 5.37408ZM26.0781 5.37408L27.0161 5.02748L26.7747 4.37408H26.0781V5.37408ZM32.3828 22.4366V23.4366H33.8184L33.3208 22.09L32.3828 22.4366ZM27.7891 16.0733H28.7891V15.0733H27.7891V16.0733ZM27.7891 19.2491V20.2491H28.7891V19.2491H27.7891ZM19.0352 19.2491H18.0352V20.2491H19.0352V19.2491ZM19.0352 16.0733V15.0733H18.0352V16.0733H19.0352ZM23.5523 8.66506L19.3921 22.1416L21.3032 22.7315L25.4633 9.25498L23.5523 8.66506ZM20.3477 21.4366H15.9297V23.4366H20.3477V21.4366ZM16.8683 22.7815L23.1379 5.71898L21.2606 5.02919L14.991 22.0917L16.8683 22.7815ZM22.1992 6.37408H25V4.37408H22.1992V6.37408ZM24.0093 5.2381L23.5171 8.82404L25.4985 9.096L25.9907 5.51006L24.0093 5.2381ZM28.9084 22.1409L24.7365 8.6643L22.826 9.25574L26.9979 22.7323L28.9084 22.1409ZM24.7701 8.81137L24.2311 5.22543L22.2533 5.52274L22.7924 9.10868L24.7701 8.81137ZM23.2422 6.37408H26.0781V4.37408H23.2422V6.37408ZM25.1401 5.72069L31.4448 22.7832L33.3208 22.09L27.0161 5.02748L25.1401 5.72069ZM32.3828 21.4366H27.9531V23.4366H32.3828V21.4366ZM26.7891 16.0733V19.2491H28.7891V16.0733H26.7891ZM27.7891 18.2491H19.0352V20.2491H27.7891V18.2491ZM20.0352 19.2491V16.0733H18.0352V19.2491H20.0352ZM19.0352 17.0733H27.7891V15.0733H19.0352V17.0733ZM44.9102 19.2725H45.9102V18.2725H44.9102V19.2725ZM44.9102 22.4366V23.4366H45.9102V22.4366H44.9102ZM36.2852 22.4366H35.2852V23.4366H36.2852V22.4366ZM36.2852 19.2725V18.2725H35.2852V19.2725H36.2852ZM37.75 5.37408H38.75V4.37408H37.75V5.37408ZM37.75 22.4366V23.4366H38.75V22.4366H37.75ZM33.6367 22.4366H32.6367V23.4366H33.6367V22.4366ZM33.6367 5.37408V4.37408H32.6367V5.37408H33.6367ZM43.9102 19.2725V22.4366H45.9102V19.2725H43.9102ZM44.9102 21.4366H36.2852V23.4366H44.9102V21.4366ZM37.2852 22.4366V19.2725H35.2852V22.4366H37.2852ZM36.2852 20.2725H44.9102V18.2725H36.2852V20.2725ZM36.75 5.37408V22.4366H38.75V5.37408H36.75ZM37.75 21.4366H33.6367V23.4366H37.75V21.4366ZM34.6367 22.4366V5.37408H32.6367V22.4366H34.6367ZM33.6367 6.37408H37.75V4.37408H33.6367V6.37408ZM58.3867 19.2725H59.3867V18.2725H58.3867V19.2725ZM58.3867 22.4366V23.4366H59.3867V22.4366H58.3867ZM49.293 22.4366H48.293V23.4366H49.293V22.4366ZM49.293 19.2725V18.2725H48.293V19.2725H49.293ZM50.7578 5.37408H51.7578V4.37408H50.7578V5.37408ZM50.7578 22.4366V23.4366H51.7578V22.4366H50.7578ZM46.6445 22.4366H45.6445V23.4366H46.6445V22.4366ZM46.6445 5.37408V4.37408H45.6445V5.37408H46.6445ZM57.2148 12.1475H58.2148V11.1475H57.2148V12.1475ZM57.2148 15.2061V16.2061H58.2148V15.2061H57.2148ZM49.293 15.2061H48.293V16.2061H49.293V15.2061ZM49.293 12.1475V11.1475H48.293V12.1475H49.293ZM58.4219 5.37408H59.4219V4.37408H58.4219V5.37408ZM58.4219 8.54987V9.54987H59.4219V8.54987H58.4219ZM49.293 8.54987H48.293V9.54987H49.293V8.54987ZM49.293 5.37408V4.37408H48.293V5.37408H49.293ZM57.3867 19.2725V22.4366H59.3867V19.2725H57.3867ZM58.3867 21.4366H49.293V23.4366H58.3867V21.4366ZM50.293 22.4366V19.2725H48.293V22.4366H50.293ZM49.293 20.2725H58.3867V18.2725H49.293V20.2725ZM49.7578 5.37408V22.4366H51.7578V5.37408H49.7578ZM50.7578 21.4366H46.6445V23.4366H50.7578V21.4366ZM47.6445 22.4366V5.37408H45.6445V22.4366H47.6445ZM46.6445 6.37408H50.7578V4.37408H46.6445V6.37408ZM56.2148 12.1475V15.2061H58.2148V12.1475H56.2148ZM57.2148 14.2061H49.293V16.2061H57.2148V14.2061ZM50.293 15.2061V12.1475H48.293V15.2061H50.293ZM49.293 13.1475H57.2148V11.1475H49.293V13.1475ZM57.4219 5.37408V8.54987H59.4219V5.37408H57.4219ZM58.4219 7.54987H49.293V9.54987H58.4219V7.54987ZM50.293 8.54987V5.37408H48.293V8.54987H50.293ZM49.293 6.37408H58.4219V4.37408H49.293V6.37408ZM67.5977 13.5538H68.5977V12.5538H67.5977V13.5538ZM67.5977 16.6124V17.6124H68.5977V16.6124H67.5977ZM60.5547 16.6124H59.5547V17.6124H60.5547V16.6124ZM60.5547 13.5538V12.5538H59.5547V13.5538H60.5547ZM66.5977 13.5538V16.6124H68.5977V13.5538H66.5977ZM67.5977 15.6124H60.5547V17.6124H67.5977V15.6124ZM61.5547 16.6124V13.5538H59.5547V16.6124H61.5547ZM60.5547 14.5538H67.5977V12.5538H60.5547V14.5538ZM77.3359 18.4171L76.3711 18.1544L76.3548 18.2142L76.346 18.2756L77.3359 18.4171ZM80.8867 5.37408V4.37408H80.1226L79.9218 5.11141L80.8867 5.37408ZM85.4922 5.37408L86.4398 5.69363L86.8847 4.37408H85.4922V5.37408ZM79.7383 22.4366V23.4366H80.4564L80.6859 22.7561L79.7383 22.4366ZM76.7617 22.4366L75.7718 22.2952L75.6087 23.4366H76.7617V22.4366ZM74.1133 5.37408L75.0782 5.11141L74.8774 4.37408H74.1133V5.37408ZM77.6641 18.4171L78.6532 18.27L78.6445 18.2115L78.6289 18.1544L77.6641 18.4171ZM78.2617 22.4366V23.4366H79.4214L79.2508 22.2895L78.2617 22.4366ZM75.25 22.4366L74.3018 22.7544L74.5305 23.4366H75.25V22.4366ZM69.5312 5.37408V4.37408H68.1414L68.5831 5.69187L69.5312 5.37408ZM78.3008 18.6797L81.8516 5.63676L79.9218 5.11141L76.3711 18.1544L78.3008 18.6797ZM80.8867 6.37408H85.4922V4.37408H80.8867V6.37408ZM84.5446 5.05454L78.7907 22.117L80.6859 22.7561L86.4398 5.69363L84.5446 5.05454ZM79.7383 21.4366H76.7617V23.4366H79.7383V21.4366ZM77.7517 22.578L78.3259 18.5585L76.346 18.2756L75.7718 22.2952L77.7517 22.578ZM73.1484 5.63676L76.6992 18.6797L78.6289 18.1544L75.0782 5.11141L73.1484 5.63676ZM76.6749 18.5641L77.2726 22.5837L79.2508 22.2895L78.6532 18.27L76.6749 18.5641ZM78.2617 21.4366H75.25V23.4366H78.2617V21.4366ZM76.1982 22.1188L70.4794 5.05629L68.5831 5.69187L74.3018 22.7544L76.1982 22.1188ZM69.5312 6.37408H74.1133V4.37408H69.5312V6.37408ZM91.1172 5.37408H92.1172V4.37408H91.1172V5.37408ZM91.1172 22.4366V23.4366H92.1172V22.4366H91.1172ZM87.0156 22.4366H86.0156V23.4366H87.0156V22.4366ZM87.0156 5.37408V4.37408H86.0156V5.37408H87.0156ZM90.1172 5.37408V22.4366H92.1172V5.37408H90.1172ZM91.1172 21.4366H87.0156V23.4366H91.1172V21.4366ZM88.0156 22.4366V5.37408H86.0156V22.4366H88.0156ZM87.0156 6.37408H91.1172V4.37408H87.0156V6.37408ZM101.453 8.96002L102.409 9.25498L102.433 9.17693L102.444 9.096L101.453 8.96002ZM97.293 22.4366V23.4366H98.0308L98.2485 22.7315L97.293 22.4366ZM92.875 22.4366L91.9364 22.0917L91.4422 23.4366H92.875V22.4366ZM99.1445 5.37408V4.37408H98.4466L98.2059 5.02919L99.1445 5.37408ZM101.945 5.37408L102.936 5.51006L103.092 4.37408H101.945V5.37408ZM104.898 22.4366L103.943 22.7323L104.161 23.4366H104.898V22.4366ZM100.727 8.96002L99.7377 9.10868L99.7489 9.18348L99.7713 9.25574L100.727 8.96002ZM100.188 5.37408V4.37408H99.0259L99.1986 5.52274L100.188 5.37408ZM103.023 5.37408L103.961 5.02748L103.72 4.37408H103.023V5.37408ZM109.328 22.4366V23.4366H110.764L110.266 22.09L109.328 22.4366ZM104.734 16.0733H105.734V15.0733H104.734V16.0733ZM104.734 19.2491V20.2491H105.734V19.2491H104.734ZM95.9805 19.2491H94.9805V20.2491H95.9805V19.2491ZM95.9805 16.0733V15.0733H94.9805V16.0733H95.9805ZM100.498 8.66506L96.3375 22.1416L98.2485 22.7315L102.409 9.25498L100.498 8.66506ZM97.293 21.4366H92.875V23.4366H97.293V21.4366ZM93.8136 22.7815L100.083 5.71898L98.2059 5.02919L91.9364 22.0917L93.8136 22.7815ZM99.1445 6.37408H101.945V4.37408H99.1445V6.37408ZM100.955 5.2381L100.462 8.82404L102.444 9.096L102.936 5.51006L100.955 5.2381ZM105.854 22.1409L101.682 8.6643L99.7713 9.25574L103.943 22.7323L105.854 22.1409ZM101.715 8.81137L101.176 5.22543L99.1986 5.52274L99.7377 9.10868L101.715 8.81137ZM100.188 6.37408H103.023V4.37408H100.188V6.37408ZM102.085 5.72069L108.39 22.7832L110.266 22.09L103.961 5.02748L102.085 5.72069ZM109.328 21.4366H104.898V23.4366H109.328V21.4366ZM103.734 16.0733V19.2491H105.734V16.0733H103.734ZM104.734 18.2491H95.9805V20.2491H104.734V18.2491ZM96.9805 19.2491V16.0733H94.9805V19.2491H96.9805ZM95.9805 17.0733H104.734V15.0733H95.9805V17.0733ZM124.281 13.3194H125.281V12.3194H124.281V13.3194ZM124.281 20.3272L125.024 20.9972L125.281 20.7117V20.3272H124.281ZM122.945 21.3585L123.463 22.214L123.466 22.212L122.945 21.3585ZM114.414 22.1319L114.044 23.0609L114.051 23.0636L114.414 22.1319ZM112.035 20.5264L111.3 21.2048L111.308 21.2131L112.035 20.5264ZM110.512 17.9249L109.565 18.2476L109.568 18.2562L110.512 17.9249ZM112.035 7.29596L111.3 6.61768L111.3 6.61802L112.035 7.29596ZM114.344 5.67877L113.963 4.75426L113.96 4.75545L114.344 5.67877ZM121.105 5.87799L120.653 6.76959L120.658 6.77242L121.105 5.87799ZM123.344 7.92877L122.479 8.43073L122.481 8.43409L123.344 7.92877ZM124.27 10.9405V11.9405H125.37L125.265 10.845L124.27 10.9405ZM120.32 10.9405L119.33 11.0781L119.45 11.9405H120.32V10.9405ZM119.875 9.5108L118.991 9.97869L118.997 9.98912L119.002 9.99941L119.875 9.5108ZM118.961 8.60846L118.493 9.49225L118.5 9.49586L118.507 9.49937L118.961 8.60846ZM116.066 8.60846L115.606 7.72093L115.599 7.72467L116.066 8.60846ZM115.047 9.5694L115.879 10.1241L115.884 10.1171L115.047 9.5694ZM114.391 11.1631L113.419 10.9262L113.416 10.9374L114.391 11.1631ZM114.379 16.6241L113.402 16.8385L113.405 16.8498L114.379 16.6241ZM115.035 18.2296L114.205 18.7877L114.211 18.7965L114.217 18.805L115.035 18.2296ZM116.16 19.1905L115.725 20.091L115.735 20.0955L115.744 20.0998L116.16 19.1905ZM118.914 19.4014L119.134 20.377L119.145 20.3744L119.157 20.3716L118.914 19.4014ZM119.688 19.1202L120.162 20.0007L120.173 19.9943L119.688 19.1202ZM120.168 18.7921L120.848 19.5248L121.168 19.2281V18.7921H120.168ZM120.168 16.1436H121.168V15.1436H120.168V16.1436ZM117.309 16.1436H116.309V17.1436H117.309V16.1436ZM117.309 13.3194V12.3194H116.309V13.3194H117.309ZM123.281 13.3194V20.3272H125.281V13.3194H123.281ZM123.539 19.6572C123.342 19.8753 122.989 20.1605 122.424 20.5049L123.466 22.212C124.105 21.8221 124.642 21.4198 125.024 20.9972L123.539 19.6572ZM122.428 20.503C121.932 20.803 121.271 21.0809 120.422 21.3224L120.969 23.2461C121.933 22.9719 122.771 22.6326 123.463 22.214L122.428 20.503ZM120.422 21.3224C119.627 21.5486 118.656 21.671 117.496 21.671V23.671C118.789 23.671 119.952 23.5355 120.969 23.2461L120.422 21.3224ZM117.496 21.671C116.47 21.671 115.568 21.5084 114.777 21.2002L114.051 23.0636C115.104 23.4742 116.257 23.671 117.496 23.671V21.671ZM114.784 21.2029C113.994 20.8881 113.324 20.4343 112.762 19.8398L111.308 21.2131C112.075 22.0248 112.991 22.6413 114.044 23.0609L114.784 21.2029ZM112.77 19.8481C112.217 19.2489 111.775 18.5039 111.455 17.5936L109.568 18.2562C109.967 19.3927 110.541 20.3821 111.3 21.2047L112.77 19.8481ZM111.458 17.6022C111.149 16.6947 110.984 15.6274 110.984 14.3858H108.984C108.984 15.8005 109.171 17.0925 109.565 18.2475L111.458 17.6022ZM110.984 14.3858V13.4366H108.984V14.3858H110.984ZM110.984 13.4366C110.984 12.1971 111.152 11.132 111.468 10.2266L109.579 9.56845C109.176 10.7255 108.984 12.0198 108.984 13.4366H110.984ZM111.468 10.2266C111.788 9.30647 112.227 8.56299 112.77 7.9739L111.3 6.61802C110.546 7.43518 109.977 8.42607 109.579 9.56845L111.468 10.2266ZM112.77 7.97424C113.33 7.36803 113.98 6.91318 114.728 6.60209L113.96 4.75545C112.942 5.17873 112.053 5.80202 111.3 6.61768L112.77 7.97424ZM114.725 6.60328C115.483 6.29084 116.328 6.12799 117.273 6.12799V4.12799C116.094 4.12799 114.986 4.33233 113.963 4.75426L114.725 6.60328ZM117.273 6.12799C118.749 6.12799 119.855 6.36448 120.653 6.76957L121.558 4.98641C120.387 4.3915 118.939 4.12799 117.273 4.12799V6.12799ZM120.658 6.77242C121.484 7.18533 122.078 7.73933 122.479 8.43072L124.209 7.42682C123.594 6.36821 122.696 5.55502 121.553 4.98356L120.658 6.77242ZM122.481 8.43409C122.906 9.15944 123.177 10.0197 123.274 11.0359L125.265 10.845C125.144 9.58007 124.798 8.43248 124.207 7.42345L122.481 8.43409ZM124.27 9.94049H120.32V11.9405H124.27V9.94049ZM121.311 10.8029C121.22 10.1488 121.041 9.5463 120.748 9.0222L119.002 9.99941C119.146 10.2566 119.264 10.6072 119.33 11.0781L121.311 10.8029ZM120.759 9.04292C120.452 8.4642 119.998 8.01493 119.415 7.71755L118.507 9.49937C118.72 9.60824 118.876 9.76053 118.991 9.97869L120.759 9.04292ZM119.429 7.72467C118.84 7.41288 118.148 7.29205 117.414 7.29205V9.29205C117.946 9.29205 118.285 9.38217 118.493 9.49225L119.429 7.72467ZM117.414 7.29205C116.774 7.29205 116.165 7.43061 115.606 7.72096L116.527 9.49596C116.781 9.36443 117.07 9.29205 117.414 9.29205V7.29205ZM115.599 7.72467C115.031 8.02513 114.571 8.47057 114.21 9.02174L115.884 10.1171C116.085 9.80885 116.305 9.61367 116.534 9.49225L115.599 7.72467ZM114.215 9.0147C113.853 9.55777 113.595 10.2046 113.419 10.9262L115.362 11.4001C115.499 10.8405 115.678 10.4248 115.879 10.1241L114.215 9.0147ZM113.416 10.9374C113.247 11.6706 113.168 12.4996 113.168 13.4131H115.168C115.168 12.608 115.238 11.9369 115.365 11.3889L113.416 10.9374ZM113.168 13.4131V14.3858H115.168V13.4131H113.168ZM113.168 14.3858C113.168 15.2894 113.242 16.1102 113.402 16.8385L115.356 16.4097C115.234 15.8567 115.168 15.1854 115.168 14.3858H113.168ZM113.405 16.8498C113.574 17.5785 113.833 18.2338 114.205 18.7877L115.865 17.6714C115.659 17.366 115.481 16.9509 115.353 16.3984L113.405 16.8498ZM114.217 18.805C114.61 19.3624 115.115 19.7964 115.725 20.091L116.595 18.2899C116.299 18.1471 116.054 17.9404 115.853 17.6541L114.217 18.805ZM115.744 20.0998C116.362 20.3827 117.053 20.5069 117.789 20.5069V18.5069C117.275 18.5069 116.88 18.4201 116.576 18.2812L115.744 20.0998ZM117.789 20.5069C118.276 20.5069 118.728 20.4682 119.134 20.377L118.695 18.4258C118.475 18.4753 118.178 18.5069 117.789 18.5069V20.5069ZM119.157 20.3716C119.521 20.2806 119.863 20.1615 120.162 20.0006L119.213 18.2397C119.106 18.2976 118.933 18.366 118.672 18.4313L119.157 20.3716ZM120.173 19.9943C120.417 19.8589 120.655 19.7042 120.848 19.5248L119.488 18.0593C119.462 18.083 119.38 18.1471 119.202 18.246L120.173 19.9943ZM121.168 18.7921V16.1436H119.168V18.7921H121.168ZM120.168 15.1436H117.309V17.1436H120.168V15.1436ZM118.309 16.1436V13.3194H116.309V16.1436H118.309ZM117.309 14.3194H124.281V12.3194H117.309V14.3194ZM138.426 19.2725H139.426V18.2725H138.426V19.2725ZM138.426 22.4366V23.4366H139.426V22.4366H138.426ZM129.332 22.4366H128.332V23.4366H129.332V22.4366ZM129.332 19.2725V18.2725H128.332V19.2725H129.332ZM130.797 5.37408H131.797V4.37408H130.797V5.37408ZM130.797 22.4366V23.4366H131.797V22.4366H130.797ZM126.684 22.4366H125.684V23.4366H126.684V22.4366ZM126.684 5.37408V4.37408H125.684V5.37408H126.684ZM137.254 12.1475H138.254V11.1475H137.254V12.1475ZM137.254 15.2061V16.2061H138.254V15.2061H137.254ZM129.332 15.2061H128.332V16.2061H129.332V15.2061ZM129.332 12.1475V11.1475H128.332V12.1475H129.332ZM138.461 5.37408H139.461V4.37408H138.461V5.37408ZM138.461 8.54987V9.54987H139.461V8.54987H138.461ZM129.332 8.54987H128.332V9.54987H129.332V8.54987ZM129.332 5.37408V4.37408H128.332V5.37408H129.332ZM137.426 19.2725V22.4366H139.426V19.2725H137.426ZM138.426 21.4366H129.332V23.4366H138.426V21.4366ZM130.332 22.4366V19.2725H128.332V22.4366H130.332ZM129.332 20.2725H138.426V18.2725H129.332V20.2725ZM129.797 5.37408V22.4366H131.797V5.37408H129.797ZM130.797 21.4366H126.684V23.4366H130.797V21.4366ZM127.684 22.4366V5.37408H125.684V22.4366H127.684ZM126.684 6.37408H130.797V4.37408H126.684V6.37408ZM136.254 12.1475V15.2061H138.254V12.1475H136.254ZM137.254 14.2061H129.332V16.2061H137.254V14.2061ZM130.332 15.2061V12.1475H128.332V15.2061H130.332ZM129.332 13.1475H137.254V11.1475H129.332V13.1475ZM137.461 5.37408V8.54987H139.461V5.37408H137.461ZM138.461 7.54987H129.332V9.54987H138.461V7.54987ZM130.332 8.54987V5.37408H128.332V8.54987H130.332ZM129.332 6.37408H138.461V4.37408H129.332V6.37408ZM142.152 5.37408V4.37408H140.756L141.206 5.69596L142.152 5.37408ZM145.504 5.37408L146.456 5.06859L146.233 4.37408H145.504V5.37408ZM149.312 17.2452L148.36 17.5507L149.312 20.5186L150.265 17.5507L149.312 17.2452ZM153.121 5.37408V4.37408H152.392L152.169 5.06859L153.121 5.37408ZM156.473 5.37408L157.419 5.69596L157.869 4.37408H156.473V5.37408ZM150.672 22.4366V23.4366H151.388L151.619 22.7585L150.672 22.4366ZM147.953 22.4366L147.006 22.7585L147.237 23.4366H147.953V22.4366ZM140.113 5.37408V4.37408H139.113V5.37408H140.113ZM143.582 5.37408L144.581 5.32486L144.534 4.37408H143.582V5.37408ZM144.227 18.4522H145.227V18.4276L145.225 18.403L144.227 18.4522ZM144.227 22.4366V23.4366H145.227V22.4366H144.227ZM140.113 22.4366H139.113V23.4366H140.113V22.4366ZM155.043 5.37408V4.37408H154.091L154.044 5.32486L155.043 5.37408ZM158.523 5.37408H159.523V4.37408H158.523V5.37408ZM158.523 22.4366V23.4366H159.523V22.4366H158.523ZM154.398 22.4366H153.398V23.4366H154.398V22.4366ZM154.398 18.4522L153.4 18.403L153.398 18.4276V18.4522H154.398ZM142.152 6.37408H145.504V4.37408H142.152V6.37408ZM144.552 5.67958L148.36 17.5507L150.265 16.9397L146.456 5.06859L144.552 5.67958ZM150.265 17.5507L154.073 5.67958L152.169 5.06859L148.36 16.9397L150.265 17.5507ZM153.121 6.37408H156.473V4.37408H153.121V6.37408ZM155.526 5.05221L149.725 22.1147L151.619 22.7585L157.419 5.69596L155.526 5.05221ZM150.672 21.4366H147.953V23.4366H150.672V21.4366ZM148.9 22.1147L143.099 5.05221L141.206 5.69596L147.006 22.7585L148.9 22.1147ZM140.113 6.37408H143.582V4.37408H140.113V6.37408ZM142.583 5.42331L143.228 18.5014L145.225 18.403L144.581 5.32486L142.583 5.42331ZM143.227 18.4522V22.4366H145.227V18.4522H143.227ZM144.227 21.4366H140.113V23.4366H144.227V21.4366ZM141.113 22.4366V5.37408H139.113V22.4366H141.113ZM155.043 6.37408H158.523V4.37408H155.043V6.37408ZM157.523 5.37408V22.4366H159.523V5.37408H157.523ZM158.523 21.4366H154.398V23.4366H158.523V21.4366ZM155.398 22.4366V18.4522H153.398V22.4366H155.398ZM155.397 18.5014L156.042 5.42331L154.044 5.32486L153.4 18.403L155.397 18.5014Z" fill="white" fill-opacity="0.5" mask="url(#path-2-outside-1_5_305)"/>
</svg>
